<?xml version="1.0" encoding="utf-8"?>
<!-- Uploaded to: SVG Repo, www.svgrepo.com, Generator: SVG Repo Mixer Tools -->
<svg fill="#000000" width="800px" height="800px" viewBox="0 0 32 32" version="1.1" xmlns="http://www.w3.org/2000/svg">
<title>corked-tube</title>
<path d="M27.463 4.738l-6.132-3.528c-0.202 0.349-0.882 1.533-1.382 2.919l-0.325-0.187c-4.091 7.119-7.979 13.737-12.027 20.709-1.22 2.101-0.777 4.63 0.986 5.643s4.192 0.134 5.401-1.973c4.014-6.992 7.909-13.606 12.027-20.709l-0.418-0.24c0.959-1.108 1.658-2.27 1.869-2.635zM15.205 13.722l4.206-7.361c-0.116 1.234 0.161 2.373 1.26 3.007 1.452 0.837 2.988-0.043 4.237-1.263l-3.21 5.617h-6.493z"></path>
</svg>